<svg width="32" height="32" xmlns="http://www.w3.org/2000/svg">
  <path id="svg_8" d="m16.39557,6.62647l-4.21208,5.39879l1.97784,4.98415l-5.69617,10.20564l15.66448,0.15823l-5.93351,-10.12653l2.29429,-4.82592" fill="#222"/>
  <path id="svg_1" d="m16,3c-1.09375,0 -2,0.90625 -2,2c0,0.44141 0.15625,0.85547 0.40625,1.1875c-0.35547,0.375 -0.76172,0.82422 -1.1875,1.34375c-1.04687,1.28125 -2.21875,2.76172 -2.21875,4.46875c0,1.13672 0.41406,2.16016 1.0625,3l-0.0625,0c-0.03125,0 -0.0625,0 -0.09375,0c-0.55078,0.02734 -0.98047,0.49609 -0.95312,1.04688c0.02734,0.55078 0.49609,0.98046 1.04687,0.95312l0.5,0l-1.40625,3.5625l-0.71875,1.4375l-1.375,0c-0.03125,0 -0.0625,0 -0.09375,0c-0.55078,0.02734 -0.98047,0.49609 -0.95312,1.04688c0.02734,0.55078 0.49609,0.98046 1.04687,0.95312l-1.8125,2.40625l-0.1875,0.25l0,2.34375l18,0l0,-2.34375l-0.1875,-0.25l-1.8125,-2.40625c0.35938,0.00391 0.69531,-0.18359 0.87891,-0.49609c0.17968,-0.3125 0.17968,-0.69532 0,-1.00782c-0.1836,-0.3125 -0.51953,-0.5 -0.87891,-0.49609l-1.375,0l-0.71875,-1.4375l-1.40625,-3.5625l0.5,0c0.35938,0.00391 0.69531,-0.18359 0.87891,-0.49609c0.17968,-0.3125 0.17968,-0.69532 0,-1.00782c-0.1836,-0.3125 -0.51953,-0.5 -0.87891,-0.49609c0.62891,-0.83984 1,-1.87891 1,-3c0,-1.70703 -1.17187,-3.1875 -2.21875,-4.46875c-0.42578,-0.51953 -0.83203,-0.96875 -1.1875,-1.34375c0.25,-0.33203 0.40625,-0.74609 0.40625,-1.1875c0,-1.09375 -0.90625,-2 -2,-2zm0,4.46875c0.36328,0.36719 0.60938,0.59766 1.21875,1.34375c0.95313,1.16797 1.78125,2.6875 1.78125,3.1875c0,1.67969 -1.30078,3 -2.96875,3c-1.66797,0 -3.03125,-1.33984 -3.03125,-3c0,-0.5 0.82813,-2.01953 1.78125,-3.1875c0.60938,-0.74609 0.85547,-0.97656 1.21875,-1.34375zm-1.3125,9.53125l2.625,0l1.75,4.375l0.03125,0.03125l0,0.03125l0.28125,0.5625l-6.75,0l0.28125,-0.5625l0,-0.03125l0.03125,-0.03125l1.75,-4.375zm-3.1875,7l9,0l2.25,3l-13.5,0l2.25,-3z"/>
</svg>
