<svg width="32" height="32" xmlns="http://www.w3.org/2000/svg">
  <path d="m8.99142,7.33785l5.02574,6.82382l-3.17915,9.03168l-3.1069,4.3352l16.40152,0.07225l-3.1069,-4.47971l-2.74563,-9.10393l4.91323,-6.71957l-14.20192,0.04026z" fill="#ffffff"/>
  <path d="m16,3c-1.09375,0 -2,0.90625 -2,2c0,0.35938 0.10938,0.70703 0.28125,1l-6.28125,0l0,2.375l0.21875,0.25l3.65625,4.375c-0.55078,0.03516 -0.97266,0.51172 -0.9375,1.0625c0.03516,0.55078 0.51172,0.97266 1.0625,0.9375l0.65625,0l-1.5625,5.5625l-0.0625,0.15625l-0.65625,1.28125l-1.375,0c-0.03125,0 -0.0625,0 -0.09375,0c-0.55078,0.02734 -0.98047,0.49609 -0.95312,1.04688c0.02734,0.55078 0.49609,0.98046 1.04687,0.95312l-1.8125,2.40625l-0.1875,0.25l0,2.34375l18,0l0,-2.34375l-0.1875,-0.25l-1.8125,-2.40625c0.35938,0.00391 0.69531,-0.18359 0.87891,-0.49609c0.17968,-0.3125 0.17968,-0.69532 0,-1.00782c-0.1836,-0.3125 -0.51953,-0.5 -0.87891,-0.49609l-1.375,0l-0.65625,-1.28125l-0.03125,-0.0625l-0.03125,-0.09375l-1.5625,-5.5625l0.65625,0c0.55078,0.04297 1.03516,-0.37109 1.07813,-0.92187c0.04296,-0.55079 -0.3711,-1.03516 -0.92188,-1.07813l3.625,-4.375l0.21875,-0.25l0,-2.375l-6.28125,0c0.17188,-0.29297 0.28125,-0.64062 0.28125,-1c0,-1.09375 -0.90625,-2 -2,-2zm-5.6875,5l11.375,0l-4.15625,5l-3.0625,0l-4.15625,-5zm4.4375,7l2.5,0l1.78125,6.28125l0.03125,0.09375l0.3125,0.625l-6.75,0l0.3125,-0.625l0.03125,-0.09375l1.78125,-6.28125zm-3.25,9l9,0l2.25,3l-13.5,0l2.25,-3z"/>
</svg>
