<svg width="32" height="32" xmlns="http://www.w3.org/2000/svg">
  <path fill="#ffffff" d="m24.16561,27.76078l-2.88902,-5.50661l-4.60034,-7.9356l2.24267,-1.55262l2.12766,1.20759l1.95515,-2.18516l-4.19781,-4.25532l-2.93272,-0.46003l-0.40253,-3.22024c0.0138,0.0437 -2.05635,1.53882 -2.05635,1.53882c0,0 -0.11501,2.18516 -0.12881,2.14146c0.0138,0.0437 -3.72398,3.26395 -3.72398,3.26395c0,0 -0.23002,5.92294 -0.24382,5.87924c0.0138,0.0437 1.79643,5.73663 1.78263,5.69293c0.0138,0.04371 -2.97642,5.16159 -2.97642,5.21909"/>
  <path d="m16,3c-1.76953,0 -2.94141,0.98438 -3.40625,2c-0.35156,0.76953 -0.30859,1.30469 -0.3125,1.75c-0.74609,0.50781 -1.53125,1.15625 -2.15625,1.78125c-1.39844,1.39844 -2.16406,3.39063 -2.125,5.5c0.01953,0.97266 0.21875,1.94922 0.59375,2.9375c0.1875,0.49609 0.53125,1.35547 0.84375,2.3125c0.3125,0.95703 0.5625,2.01172 0.5625,2.71875l-1,0c-0.03125,0 -0.0625,0 -0.09375,0c-0.53906,0.03516 -0.95312,0.49219 -0.93359,1.03125c0.01562,0.53906 0.45703,0.96484 0.99609,0.96875l-1.78125,2.40625l-0.1875,0.25l0,2.34375l18,0l0,-2.34375l-0.1875,-0.25l-1.8125,-2.40625c0.35938,0.00391 0.69531,-0.18359 0.87891,-0.49609c0.17968,-0.3125 0.17968,-0.69532 0,-1.00782c-0.1836,-0.3125 -0.51953,-0.5 -0.87891,-0.49609l-1,0c0,-2.26172 -1.40625,-4.33594 -2.71875,-5.9375c-0.75,-0.91797 -0.99609,-1.07812 -1.5,-1.5625c0.17969,-0.10547 0.40234,-0.23047 0.53125,-0.3125c0.16016,-0.10156 0.24609,-0.16406 0.28125,-0.1875c0.28125,0 0.30078,0.04688 0.59375,0.28125c0.29297,0.23438 0.89063,0.71875 1.71875,0.71875c0.72656,0 1.25781,-0.46875 1.53125,-0.8125c0.25,-0.31641 0.38672,-0.55469 0.40625,-0.59375c0.08984,-0.04297 0.28516,-0.10547 0.53125,-0.28125c0.24609,-0.17578 0.56641,-0.56641 0.625,-1c0.05859,-0.43359 -0.07812,-0.8125 -0.25,-1.1875c-0.25391,-0.55469 -0.72656,-1.19141 -1.46875,-1.96875c-0.74219,-0.77734 -1.71484,-1.60156 -2.90625,-2.09375c-0.08984,-0.03906 -0.01562,0.01953 -0.0625,-0.03125c-0.04687,-0.05078 -0.1875,-0.26172 -0.46875,-0.46875c-0.36719,-0.26953 -1.16406,-0.30078 -1.84375,-0.375l0,-3.1875l-1,0zm-1,2.21875l0,2.78125l1,0c1.36328,0 1.66406,0.16406 1.65625,0.15625c-0.00391,-0.00391 0.00391,0.01563 0.15625,0.1875c0.15234,0.17188 0.44922,0.44141 0.8125,0.59375c0.80078,0.33203 1.60156,0.98047 2.21875,1.625c0.57813,0.60156 0.96484,1.19922 1.03125,1.3125c-0.16016,0.07813 -0.32812,0.13281 -0.53125,0.375c-0.27344,0.33203 -0.37109,0.5625 -0.46875,0.6875c-0.03125,0.03906 -0.02734,0.05078 -0.03125,0.0625c-0.08594,-0.01172 -0.14453,-0.06641 -0.40625,-0.28125c-0.32812,-0.26562 -0.98047,-0.71875 -1.84375,-0.71875c-0.65625,0 -1.02734,0.30078 -1.34375,0.5c-0.31641,0.19922 -0.57031,0.34375 -0.65625,0.375l-0.03125,0.03125l-0.03125,0c-0.18359,0.07813 -0.5,0.09375 -0.5,0.09375l-1.03125,-0.03125l0,1.59375l0.34375,0.28125c0,0 1.1875,1.04688 2.375,2.5c1.1875,1.45313 2.28125,3.32422 2.28125,4.65625l-8,0c0,-1.12109 -0.3125,-2.29687 -0.65625,-3.34375c-0.34375,-1.04687 -0.75,-1.96094 -0.90625,-2.375c-0.29297,-0.77344 -0.42187,-1.57422 -0.4375,-2.3125c-0.03125,-1.60547 0.54297,-3.04297 1.53125,-4.03125c0.65234,-0.65234 1.625,-1.46875 2.15625,-1.78125l0.5,-0.28125l0,-0.5625c0,-0.37109 0,-0.99219 0.21875,-1.46875c0.125,-0.26953 0.29688,-0.47656 0.59375,-0.625zm-3.5,18.78125l9,0l2.25,3l-13.5,0l2.25,-3z"/>
</svg>
