<svg width="32" height="32" xmlns="http://www.w3.org/2000/svg">
  <path fill="#ffffff" d="m15.94706,9.46321l-3.50662,3.3478l1.95871,3.65273l-3.59979,7.41133l-2.91159,3.59979l15.93436,0.05294l-2.69984,-3.54685l-3.59979,-7.41133l1.85283,-3.7586l-3.42827,-3.3478z"/>
  <path d="m16,9c-2.19922,0 -4,1.80078 -4,4c0,1.19922 0.55859,2.26563 1.40625,3l-1.40625,0c-0.03125,0 -0.0625,0 -0.09375,0c-0.55078,0.02734 -0.98047,0.49609 -0.95312,1.04688c0.02734,0.55078 0.49609,0.98046 1.04687,0.95312l0.5,0l-1.40625,3.5625l-0.71875,1.4375l-1.375,0c-0.03125,0 -0.0625,0 -0.09375,0c-0.47266,0.03125 -0.85547,0.38672 -0.92578,0.85547c-0.06641,0.46484 0.20312,0.91797 0.64453,1.08203l-1.34375,1.34375l-0.28125,0.3125l0,2.40625l18,0l0,-2.40625l-0.28125,-0.3125l-1.34375,-1.34375c0.45703,-0.17187 0.72656,-0.64844 0.63281,-1.12891c-0.08984,-0.48046 -0.51953,-0.82031 -1.00781,-0.80859l-1.375,0l-0.71875,-1.4375l-1.40625,-3.5625l0.5,0c0.35938,0.00391 0.69531,-0.18359 0.87891,-0.49609c0.17968,-0.3125 0.17968,-0.69532 0,-1.00782c-0.1836,-0.3125 -0.51953,-0.5 -0.87891,-0.49609l-1.40625,0c0.84766,-0.73437 1.40625,-1.80078 1.40625,-3c0,-2.19922 -1.80078,-4 -4,-4zm0,2c1.11719,0 2,0.88281 2,2c0,1.11719 -0.88281,2 -2,2c-1.11719,0 -2,-0.88281 -2,-2c0,-1.11719 0.88281,-2 2,-2zm-1.3125,7l2.625,0l1.75,4.375l0.03125,0.03125l0,0.03125l0.28125,0.5625l-6.75,0l0.28125,-0.5625l0,-0.03125l0.03125,-0.03125l1.75,-4.375zm-3.25,7l9.125,0l2,2l-13.125,0l2,-2z"/>
</svg>
