<svg width="32" height="32" xmlns="http://www.w3.org/2000/svg">
  <path d="m7.7013,27.54708l3.5,-4.94156l2.3539,-8.56331l-2.51623,-3.57143c0.03084,0.03084 4.98214,-1.02435 4.98214,-1.02435c0,0 4.9513,1.37987 4.9513,1.37987c0,0 -2.84091,3.6526 -2.87175,3.62175c0.03085,0.03084 2.79059,8.4724 2.75974,8.44156c0.03085,0.03085 3.2776,5.02273 3.24675,4.99188c0.03085,0.03085 -16.40584,-0.33441 -16.40584,-0.33441z" fill="#ffffff"/>
  <path d="m16,3c-1.09375,0 -2,0.90625 -2,2c0,0.73047 0.40234,1.37109 1,1.71875l0,1.53125c0,0.42578 -0.32422,0.75 -0.75,0.75l-2.34375,0c-0.3125,0 -0.58984,-0.14844 -0.75,-0.375c0.51172,-0.36328 0.84375,-0.95703 0.84375,-1.625c0,-1.09375 -0.90625,-2 -2,-2c-1.09375,0 -2,0.90625 -2,2c0,0.73047 0.40234,1.37109 1,1.71875l0,1.6875l0.28125,0.3125l2.34375,2.34375c-0.45703,0.17188 -0.72266,0.64844 -0.62891,1.125c0.09375,0.48047 0.51563,0.82422 1.00391,0.8125l0.65625,0l-1.5625,5.5625l-0.0625,0.15625l-0.65625,1.28125l-1.375,0c-0.03125,0 -0.0625,0 -0.09375,0c-0.55078,0.02734 -0.98047,0.49609 -0.95312,1.04688c0.02734,0.55078 0.49609,0.98046 1.04687,0.95312l-1.8125,2.40625l-0.1875,0.25l0,2.34375l18,0l0,-2.34375l-0.1875,-0.25l-1.8125,-2.40625c0.35938,0.00391 0.69531,-0.18359 0.87891,-0.49609c0.17968,-0.3125 0.17968,-0.69532 0,-1.00782c-0.1836,-0.3125 -0.51953,-0.5 -0.87891,-0.49609l-1.375,0l-0.65625,-1.28125l-0.03125,-0.0625l-0.03125,-0.09375l-1.5625,-5.5625l0.65625,0c0.48828,0.01172 0.91797,-0.32812 1.00781,-0.80859c0.09375,-0.48047 -0.17578,-0.95703 -0.63281,-1.12891l2.34375,-2.34375l0.28125,-0.3125l0,-1.6875c0.59766,-0.34766 1,-0.98828 1,-1.71875c0,-1.09375 -0.90625,-2 -2,-2c-1.09375,0 -2,0.90625 -2,2c0,0.66797 0.33203,1.26172 0.84375,1.625c-0.16016,0.22656 -0.4375,0.375 -0.75,0.375l-2.34375,0c-0.42578,0 -0.75,-0.32422 -0.75,-0.75l0,-1.53125c0.59766,-0.34766 1,-0.98828 1,-1.71875c0,-1.09375 -0.90625,-2 -2,-2zm0,7.34375c0.48047,0.40234 1.08203,0.65625 1.75,0.65625l1.8125,0l-2,2l-3.125,0l-2,-2l1.8125,0c0.66797,0 1.26953,-0.25391 1.75,-0.65625zm-1.25,4.65625l2.5,0l1.78125,6.28125l0.03125,0.09375l0.3125,0.625l-6.75,0l0.3125,-0.625l0.03125,-0.09375l1.78125,-6.28125zm-3.25,9l9,0l2.25,3l-13.5,0l2.25,-3z"/>
</svg>
