<svg width="32" height="32" xmlns="http://www.w3.org/2000/svg">
  <path d="m9.7415,4.7483l12.29932,0.14966l-0.13605,7.14286l-3.87755,0.20408l2.72109,10.34014l3.40136,4.7619l-16.05442,-0.06803l3.12925,-4.82993l2.58503,-10.27211l-3.60544,-0.34014l-0.46258,-7.08844z" fill="#fff"/>
  <path d="m9,4l0,9l3.75,0l-0.21875,1l-0.53125,0c-0.03125,0 -0.0625,0 -0.09375,0c-0.55078,0.02734 -0.98047,0.49609 -0.95312,1.04688c0.02734,0.55078 0.49609,0.98046 1.04687,0.95312l0.09375,0l-1,4.5625l-0.71875,1.4375l-1.375,0c-0.03125,0 -0.0625,0 -0.09375,0c-0.55078,0.02734 -0.98047,0.49609 -0.95312,1.04688c0.02734,0.55078 0.49609,0.98046 1.04687,0.95312l-1.8125,2.40625l-0.1875,0.25l0,2.34375l18,0l0,-2.34375l-0.1875,-0.25l-1.8125,-2.40625c0.35938,0.00391 0.69531,-0.18359 0.87891,-0.49609c0.17968,-0.3125 0.17968,-0.69532 0,-1.00782c-0.1836,-0.3125 -0.51953,-0.5 -0.87891,-0.49609l-1.375,0l-0.71875,-1.4375l-1,-4.5625l0.09375,0c0.35938,0.00391 0.69531,-0.18359 0.87891,-0.49609c0.17968,-0.3125 0.17968,-0.69532 0,-1.00782c-0.1836,-0.3125 -0.51953,-0.5 -0.87891,-0.49609l-0.53125,0l-0.21875,-1l3.75,0l0,-9l-14,0zm2,2l2,0l0,3l2,0l0,-3l2,0l0,3l2,0l0,-3l2,0l0,5l-10,0l0,-5zm3.78125,7l2.4375,0l0.21875,1l-2.875,0l0.21875,-1zm-0.65625,3l3.75,0l1.15625,5.21875l0.03125,0.125l0.03125,0.09375l0.28125,0.5625l-6.75,0l0.28125,-0.5625l0.03125,-0.09375l0.03125,-0.125l1.15625,-5.21875zm-2.625,8l9,0l2.25,3l-13.5,0l2.25,-3z"/>
</svg>
